<?xml version="1.0" standalone="no"?><!DOCTYPE svg PUBLIC "-//W3C//DTD SVG 1.1//EN" "http://www.w3.org/Graphics/SVG/1.1/DTD/svg11.dtd"><svg t="1637116148086" class="icon" viewBox="0 0 1024 1024" version="1.1" xmlns="http://www.w3.org/2000/svg" p-id="2629" xmlns:xlink="http://www.w3.org/1999/xlink" width="200" height="200"><defs><style type="text/css"></style></defs><path d="M129.642667 691.925333a675.989333 675.989333 0 0 1-90.304-109.568C24.341333 559.658667 14.293333 541.653333 9.002667 530.666667L0 512l9.002667-18.666667c5.290667-10.986667 15.36-28.992 30.336-51.690666a675.989333 675.989333 0 0 1 90.304-109.568C232.170667 231.509333 359.573333 170.666667 512 170.666667c152.426667 0 279.829333 60.842667 382.357333 161.408a675.989333 675.989333 0 0 1 90.304 109.568c14.997333 22.698667 25.045333 40.704 30.336 51.690666L1024 512l-9.002667 18.666667c-5.290667 10.986667-15.36 28.992-30.336 51.690666a675.989333 675.989333 0 0 1-90.304 109.568C791.829333 792.490667 664.426667 853.333333 512 853.333333c-152.426667 0-279.829333-60.842667-382.357333-161.408z m-19.968-156.949333a591.466667 591.466667 0 0 0 78.890666 95.765333C276.330667 716.842667 383.488 768 512 768c128.512 0 235.669333-51.157333 323.434667-137.258667a591.466667 591.466667 0 0 0 78.890666-95.765333c5.376-8.128 10.176-15.829333 14.378667-22.976a517.930667 517.930667 0 0 0-14.378667-22.976 591.466667 591.466667 0 0 0-78.890666-95.765333C747.669333 307.157333 640.512 256 512 256c-128.512 0-235.669333 51.157333-323.434667 137.258667a591.466667 591.466667 0 0 0-78.890666 95.765333c-5.376 8.128-10.176 15.829333-14.378667 22.976 4.202667 7.146667 9.002667 14.848 14.378667 22.976zM512 768c-140.074667 0-253.632-114.624-253.632-256S371.925333 256 512 256c140.074667 0 253.632 114.624 253.632 256S652.074667 768 512 768z m0-85.333333c93.376 0 169.088-76.416 169.088-170.666667S605.376 341.333333 512 341.333333c-93.376 0-169.088 76.416-169.088 170.666667s75.712 170.666667 169.088 170.666667z" p-id="2630"></path></svg>