<?xml version="1.0" standalone="no"?><!DOCTYPE svg PUBLIC "-//W3C//DTD SVG 1.1//EN" "http://www.w3.org/Graphics/SVG/1.1/DTD/svg11.dtd"><svg t="1637116661165" class="icon" viewBox="0 0 1024 1024" version="1.1" xmlns="http://www.w3.org/2000/svg" p-id="5780" xmlns:xlink="http://www.w3.org/1999/xlink" width="200" height="200"><defs><style type="text/css"></style></defs><path d="M945.68626087 449.36038648C941.21182609 210.51238648 756.05704348 17.57742995 528.69565217 17.57742995h-33.39130434c-227.3613913 0-412.51617391 192.93495652-416.9906087 431.74956522C38.37773913 472.46716908 11.13043478 515.17464735 11.13043478 564.56038648v66.78260869c0 73.66121739 59.904 133.56521739 133.56521739 133.56521739s133.56521739-59.904 133.5652174-133.56521739v-66.78260869a133.632 133.632 0 0 0-132.29634783-133.43165218c13.056-193.5026087 164.55234783-346.76869565 349.33982609-346.76869565h33.39130434c184.82086957 0 336.28382609 153.26608696 349.33982609 346.76869565A133.632 133.632 0 0 0 745.73913043 564.56038648v66.78260869c0 60.30469565 40.40347826 110.79234783 95.36556522 127.32104348a352.17808696 352.17808696 0 0 1-200.28104348 129.89217391A83.17773913 83.17773913 0 0 0 562.08695652 831.69082126a83.47826087 83.47826087 0 1 0 0 166.95652174 83.14434783 83.14434783 0 0 0 70.82295652-39.76904348 419.92904348 419.92904348 0 0 0 290.33739131-202.01739131C975.27095652 738.62925604 1012.86956522 689.54403865 1012.86956522 631.34299517v-66.78260869c0-49.38573913-27.24730435-92.09321739-67.18330435-115.2zM211.47826087 564.56038648v66.78260869c0 36.8306087-29.952 66.7826087-66.7826087 66.7826087s-66.7826087-29.952-66.78260869-66.7826087v-66.78260869c0-36.8306087 29.952-66.7826087 66.78260869-66.7826087s66.7826087 29.952 66.7826087 66.7826087z m734.60869565 66.78260869c0 35.79547826-28.3826087 64.87930435-63.7773913 66.48208696l-2.60452174-1.23547826c-0.23373913 0.53426087-0.60104348 0.96834783-0.83478261 1.46921739A66.7826087 66.7826087 0 0 1 812.52173913 631.34299517v-66.78260869c0-36.8306087 29.952-66.7826087 66.7826087-66.7826087s66.7826087 29.952 66.78260869 66.7826087v66.78260869z" p-id="5781"></path></svg>