<?xml version="1.0" standalone="no"?><!DOCTYPE svg PUBLIC "-//W3C//DTD SVG 1.1//EN" "http://www.w3.org/Graphics/SVG/1.1/DTD/svg11.dtd"><svg t="1636780602657" class="icon" viewBox="0 0 1024 1024" version="1.1" xmlns="http://www.w3.org/2000/svg" p-id="9353" xmlns:xlink="http://www.w3.org/1999/xlink" width="200" height="200"><defs><style type="text/css"></style></defs><path d="M528.2 741.3c-16.6 0-30-13.4-30-30V404c0-16.6 13.4-30 30-30s30 13.4 30 30v307.3c0 16.6-13.4 30-30 30z" fill="#707070" p-id="9354"></path><path d="M513.4 954.7c-59.2 0-116.7-11.6-170.9-34.5-52.3-22.1-99.2-53.8-139.5-94.1s-71.9-87.2-94.1-139.5C86.1 632.5 74.5 575 74.5 515.8S86.1 399 109 344.9c22.1-52.3 53.8-99.2 94.1-139.5s87.2-71.9 139.5-94.1c54.1-22.9 111.6-34.5 170.9-34.5 48.5 0 96.1 7.9 141.6 23.3 15.7 5.3 24.1 22.4 18.7 38.1-5.3 15.7-22.4 24.1-38.1 18.7-39.3-13.4-80.4-20.1-122.2-20.1-208.9 0-378.9 170-378.9 378.9 0 208.9 170 378.9 378.9 378.9 208.9 0 378.9-170 378.9-378.9 0-37.5-5.5-74.5-16.2-110-4.8-15.9 4.2-32.6 20-37.4 15.9-4.8 32.6 4.2 37.4 20 12.5 41.2 18.8 84.1 18.8 127.4 0 59.2-11.6 116.7-34.5 170.9-22.1 52.3-53.8 99.2-94.1 139.5s-87.2 71.9-139.5 94.1c-54.2 22.9-111.7 34.5-170.9 34.5z" fill="#707070" p-id="9355"></path><path d="M667.9 489.9c-7.2 0-14.3-2.5-20.1-7.7L508.2 356.5c-12.3-11.1-13.3-30.1-2.2-42.4 11.1-12.3 30.1-13.3 42.4-2.2L688 437.6c12.3 11.1 13.3 30.1 2.2 42.4-5.9 6.5-14.1 9.9-22.3 9.9z" fill="#707070" p-id="9356"></path><path d="M388.6 489.9c-8.2 0-16.4-3.3-22.3-9.9-11.1-12.3-10.1-31.3 2.2-42.4l139.7-125.7c12.3-11.1 31.3-10.1 42.4 2.2 11.1 12.3 10.1 31.3-2.2 42.4L408.6 482.2c-5.7 5.1-12.9 7.7-20 7.7z" fill="#707070" p-id="9357"></path></svg>